<svg width="46" height="52" viewBox="0 0 46 52" fill="none" xmlns="http://www.w3.org/2000/svg">
<path d="M45.9385 0L41.7614 46.7946L22.985 52L4.26024 46.8019L0.0875244 0H45.9385Z" fill="#264DE4"/>
<path d="M23.013 48.0212L38.1853 43.8148L41.7549 3.82675H23.013V48.0212Z" fill="#2965F1"/>
<path d="M23.013 21.1849H9.65338L10.1678 26.9249H23.013V21.1849Z" fill="#EBEBEB"/>
<path d="M23.0131 9.56691H22.9932H8.61969L9.14148 15.307H23.0131V9.56691Z" fill="#EBEBEB"/>
<path d="M10.4243 29.7951L11.2285 38.8078L22.9866 42.0719L23.013 42.0646V36.0925L22.9879 36.0992L16.5951 34.373L16.1864 29.7951H13.0801H10.4243Z" fill="#EBEBEB"/>
<path d="M30.0614 26.9249L29.3951 34.3694L22.9932 36.0973V42.0691L34.7606 38.8078L34.8469 37.838L36.1958 22.7263L36.3359 21.1849L37.3721 9.56691H22.9932V15.307H31.0815L30.5592 21.1849H22.9932V26.9249H30.0614Z" fill="white"/>
</svg>
