<svg width="52" height="52" viewBox="0 0 52 52" fill="none" xmlns="http://www.w3.org/2000/svg">
<g clip-path="url(#clip0_207_5)">
<path d="M7.24752 46.8033L3.07452 0.00163269H48.9255L44.7493 46.7968L25.9708 52L7.24752 46.8033Z" fill="#E44D26"/>
<path d="M41.1726 43.8165L44.7428 3.82849H26V48.0236L41.1726 43.8165Z" fill="#F16529"/>
<path d="M25.9805 9.56799H11.6058L13.1544 26.9262H26V21.1867H18.4048L17.8799 15.3091H26V9.56799H25.9805ZM26 36.075L25.9756 36.0815L19.5829 34.3557L19.1766 29.7781H13.4111L14.2155 38.7904L25.974 42.0404L26 42.0322V36.075Z" fill="#EBEBEB"/>
<path d="M25.9805 26.9262H33.0492L32.3992 34.3687L25.9967 36.0961V42.068L37.765 38.8066L39.3412 21.1835H26L25.9805 26.9262ZM40.222 11.1085L40.3585 9.56799H25.9772V15.3075H39.8417L39.9555 14.0172L40.222 11.1085Z" fill="white"/>
</g>
<defs>
<clipPath id="clip0_207_5">
<rect width="52" height="52" fill="white"/>
</clipPath>
</defs>
</svg>
